<?xml version="1.0" encoding="UTF-8" standalone="no"?>
<!-- Created with Inkscape (http://www.inkscape.org/) -->

<svg
   xmlns:dc="http://purl.org/dc/elements/1.1/"
   xmlns:cc="http://creativecommons.org/ns#"
   xmlns:rdf="http://www.w3.org/1999/02/22-rdf-syntax-ns#"
   xmlns:svg="http://www.w3.org/2000/svg"
   xmlns="http://www.w3.org/2000/svg"
   xmlns:sodipodi="http://sodipodi.sourceforge.net/DTD/sodipodi-0.dtd"
   xmlns:inkscape="http://www.inkscape.org/namespaces/inkscape"
   width="79.374825mm"
   height="12.914946mm"
   viewBox="0 0 79.374825 12.914946"
   version="1.1"
   id="svg72933"
   inkscape:version="0.92.4 (5da689c313, 2019-01-14)"
   sodipodi:docname="Aramex_logo.svg">
  <defs
     id="defs72927" />
  <sodipodi:namedview
     id="base"
     pagecolor="#ffffff"
     bordercolor="#666666"
     borderopacity="1.0"
     inkscape:pageopacity="0.0"
     inkscape:pageshadow="2"
     inkscape:zoom="1.4"
     inkscape:cx="172.62501"
     inkscape:cy="-54.730195"
     inkscape:document-units="mm"
     inkscape:current-layer="layer1"
     showgrid="false"
     inkscape:window-width="1366"
     inkscape:window-height="705"
     inkscape:window-x="-8"
     inkscape:window-y="-8"
     inkscape:window-maximized="1" />
  <metadata
     id="metadata72930">
    <rdf:RDF>
      <cc:Work
         rdf:about="">
        <dc:format>image/svg+xml</dc:format>
        <dc:type
           rdf:resource="http://purl.org/dc/dcmitype/StillImage" />
        <dc:title></dc:title>
      </cc:Work>
    </rdf:RDF>
  </metadata>
  <g
     inkscape:label="Layer 1"
     inkscape:groupmode="layer"
     id="layer1"
     transform="translate(-46.930465,-121.43769)">
    <path
       inkscape:connector-curvature="0"
       style="fill:#e12626;fill-opacity:1;fill-rule:nonzero;stroke:none;stroke-width:0.51563132"
       d="m 56.439428,123.14973 c -0.541814,-0.54988 -1.13197,-0.9648 -1.770466,-1.23872 -0.636486,-0.27796 -1.323321,-0.41493 -2.048428,-0.41695 -1.581132,0 -2.922583,0.60426 -4.030381,1.80875 -1.105786,1.2065 -1.657677,2.75339 -1.659688,4.64068 0,1.82082 0.570015,3.34556 1.712056,4.56817 1.142041,1.22664 2.495573,1.84097 4.060597,1.84097 0.698921,0.001 1.347489,-0.12483 1.943687,-0.37465 0.598215,-0.25177 1.194413,-0.66064 1.788596,-1.23268 v 1.29512 h 3.057534 v -12.2261 h -3.053507 z m -0.809701,7.384 c -0.628425,0.67273 -1.420001,1.00508 -2.374725,1.0071 -0.924511,-0.001 -1.704001,-0.34242 -2.334438,-1.02724 -0.632453,-0.68281 -0.948684,-1.55496 -0.948684,-2.6124 0,-1.05342 0.312199,-1.91347 0.932571,-2.58621 0.622382,-0.67274 1.401873,-1.00508 2.342498,-1.00508 0.962777,0 1.758379,0.33033 2.386805,0.98897 0.628426,0.66266 0.831856,1.41597 0.829846,2.48147 0,1.08968 -0.203431,2.08266 -0.833873,2.75339 m 21.396682,-7.384 c -0.541815,-0.54988 -1.133981,-0.9648 -1.76845,-1.23872 -0.640512,-0.27796 -1.323321,-0.41493 -2.052455,-0.41695 -1.577109,0 -2.922583,0.60426 -4.02837,1.80875 -1.105785,1.2065 -1.657676,2.75339 -1.659688,4.64068 -0.002,1.82082 0.567999,3.34556 1.712055,4.56817 1.142042,1.22664 2.495573,1.84097 4.062614,1.84097 0.696906,0.001 1.345473,-0.12483 1.93966,-0.37465 0.598209,-0.25177 1.194409,-0.66064 1.788596,-1.23268 v 1.29512 h 3.05753 v -12.2261 h -3.051492 z m -0.8097,7.384 c -0.628426,0.67273 -1.422013,1.00508 -2.37271,1.0071 -0.926527,-0.001 -1.706012,-0.34242 -2.338469,-1.02724 -0.632453,-0.68281 -0.94868,-1.55496 -0.946664,-2.6124 0.002,-1.05342 0.310183,-1.91347 0.932566,-2.58621 0.622382,-0.67274 1.401872,-1.00508 2.342498,-1.00508 0.960766,0 1.756369,0.33033 2.386806,0.98897 0.628425,0.66266 0.829846,1.41597 0.82783,2.48147 0,1.08968 -0.201416,2.08266 -0.831857,2.75339 m 22.258754,-8.42131 c -0.656621,-0.40485 -1.415968,-0.60627 -2.282071,-0.60627 -0.837898,-0.001 -1.605305,0.18733 -2.312285,0.56599 -0.704958,0.37665 -1.299148,0.92653 -1.786577,1.65365 -0.370613,-0.72712 -0.862072,-1.27902 -1.472372,-1.65567 -0.614323,-0.37866 -1.299148,-0.56799 -2.06051,-0.57 -0.753306,0 -1.448202,0.14294 -2.086697,0.43103 -0.638497,0.28601 -1.21858,0.71907 -1.740256,1.30116 v -1.41799 H 81.67515 l -0.0041,12.2261 h 3.057529 l 0.002,-5.4242 c 0.002,-1.17225 0.104741,-2.0323 0.310184,-2.57815 0.207464,-0.54584 0.517647,-0.96882 0.932568,-1.27296 0.416934,-0.30012 0.878183,-0.45319 1.387772,-0.45319 0.45521,0.001 0.845958,0.12087 1.16823,0.36052 0.322268,0.23969 0.561955,0.60427 0.723089,1.09371 0.161136,0.48946 0.241701,1.27902 0.241701,2.37271 l -0.006,5.90156 h 3.061559 v -5.49872 c 0.0041,-1.16622 0.104741,-2.01217 0.306157,-2.53787 0.203433,-0.52772 0.513623,-0.93862 0.928538,-1.23872 0.412913,-0.2981 0.886243,-0.44716 1.411947,-0.44716 0.688851,0 1.202471,0.24573 1.548909,0.73317 0.346443,0.49146 0.517645,1.42806 0.517645,2.80777 l -0.0041,6.18153 h 3.057522 l 0.004,-7.16043 c 0,-1.46833 -0.14301,-2.52981 -0.429026,-3.18038 -0.286012,-0.65261 -0.757335,-1.18233 -1.415972,-1.58719 m 12.518158,8.32463 c -0.81775,0.81373 -1.79665,1.22059 -2.93466,1.22059 -0.95472,-10e-4 -1.73422,-0.26385 -2.35056,-0.78351 -0.61432,-0.51967 -0.99097,-1.22061 -1.13398,-2.10282 l 9.80908,0.006 0.0121,-0.5821 c 0,-2.01418 -0.59822,-3.63359 -1.79867,-4.86425 -1.19844,-1.22665 -2.75742,-1.84097 -4.67492,-1.84299 -1.80471,0 -3.30729,0.61433 -4.50171,1.84903 -1.19843,1.23066 -1.79665,2.77957 -1.79665,4.64471 -0.002,1.82283 0.59822,3.33549 1.79464,4.54601 1.19643,1.21254 2.75138,1.8168 4.6568,1.8168 1.22865,0.001 2.28811,-0.21754 3.18442,-0.65663 0.89229,-0.43708 1.65969,-1.11585 2.3002,-2.03029 z m -5.15631,-5.61958 c 0.64253,-0.47333 1.38979,-0.709 2.23977,-0.70698 0.78755,0 1.4764,0.20948 2.06656,0.63044 0.5962,0.42299 0.99299,0.96883 1.19441,1.64156 l -6.62062,-0.004 c 0.3424,-0.74524 0.71704,-1.26693 1.11988,-1.561 m 15.80329,2.7534 4.13311,-5.75855 H 122.287 l -2.39285,3.33347 -2.40091,-3.33347 h -3.54094 l 4.17541,5.79278 -4.61651,6.43532 h 3.48655 l 2.87424,-4.00822 2.89035,4.00822 h 3.54295 z m -54.787832,-6.1332 c -0.565988,0 -1.059463,0.1067 -1.47237,0.31421 -0.40687,0.20343 -0.874159,0.57605 -1.399861,1.1219 v -1.05946 h -2.918551 v 12.2261 h 3.05753 l -0.002,-6.35878 c 0,-2.33041 0.644538,-3.49863 2.203519,-3.49863 0.269897,0 0.545842,0.0585 0.823798,0.16315 0.50153,-0.83992 1.081615,-1.62947 1.730182,-2.35661 -0.69892,-0.35852 -1.373669,-0.55188 -2.022236,-0.55188"
       id="path28489" />
  </g>
</svg>
