<?xml version="1.0" ?><svg enable-background="new 0 0 714.636 118.299" id="Layer_1" version="1.1" viewBox="0 0 714.636 118.299" xml:space="preserve" xmlns="http://www.w3.org/2000/svg" xmlns:xlink="http://www.w3.org/1999/xlink"><g id="Calque_1"/><g id="Calque_2"><g id="XMLID_192_"><g id="XMLID_323_"><path d="M259.216,70.316c-0.072-0.426-0.107-1.103-0.107-2.029c0-5.838,1.94-10.394,5.821-13.67     c3.881-3.275,8.171-4.913,12.869-4.913c6.194,0,10.501,2.35,12.922,7.05L259.216,70.316z M304.284,61.986     c-0.072-6.906-2.669-12.512-7.795-16.82c-5.127-4.307-11.572-6.461-19.331-6.461c-4.912,0-9.576,1.086-13.989,3.257     c-4.416,2.173-8.116,5.554-11.107,10.147c-2.99,4.592-4.487,9.915-4.487,15.966c0,8.757,2.884,15.805,8.651,21.145     c5.768,5.34,12.672,8.01,20.719,8.01c9.185,0,17.158-3.488,23.923-10.466l-7.05-7.797c-4.129,4.985-9.38,7.477-15.753,7.477     s-11.409-2.278-15.111-6.835l41.437-17.408L304.284,61.986z" fill="#1F0047" id="XMLID_341_"/><path d="M233.856,42.228c-3.312,2.28-5.929,5.198-7.85,8.757V39.559h-11.961v56.815h11.961     v-24.35c0-6.478,1.495-11.64,4.487-15.485c2.988-3.844,7.438-5.767,13.349-5.767h0.641l-0.107-12.069     C240.671,38.776,237.166,39.951,233.856,42.228" fill="#1F0047" id="XMLID_189_"/><path d="M347.153,67.433c-1.923-1.282-3.721-2.278-5.393-2.99     c-1.674-0.712-3.401-1.352-5.179-1.923c-1.781-0.568-3.828-1.137-6.142-1.708c-2.314-0.569-4.111-1.175-5.392-1.816     c-1.852-0.854-2.776-2.206-2.776-4.057c0-2.065,0.889-3.613,2.669-4.646c1.778-1.031,4.093-1.548,6.941-1.548     c5.409,0,10.43,1.531,15.059,4.592l4.485-8.864c-5.838-3.844-12.033-5.768-18.582-5.768c-6.551,0-11.873,1.586-15.967,4.754     c-4.095,3.168-6.141,7.387-6.141,12.655c0,7.476,5.91,12.814,17.729,16.018c0.283,0.072,0.71,0.215,1.281,0.428     c7.545,2.279,11.32,4.842,11.32,7.69c0,1.922-0.785,3.506-2.35,4.752c-1.566,1.246-3.702,1.868-6.407,1.868     c-6.194,0-12.601-2.491-19.223-7.476l-5.767,9.291c3.417,2.706,7.35,4.806,11.8,6.301c4.45,1.495,8.739,2.243,12.868,2.243     c6.124,0,11.143-1.619,15.06-4.859c3.914-3.24,5.873-7.564,5.873-12.976C352.919,73.984,350.997,69.996,347.153,67.433" fill="#1F0047" id="XMLID_188_"/><path d="M188.887,59.049c-2.529,2.669-7.281,4.005-14.257,4.005h-14.631V33.15h12.815     c6.835,0,11.854,1.068,15.058,3.205c3.204,2.136,4.806,5.785,4.806,10.947C192.678,52.465,191.414,56.378,188.887,59.049      M197.804,28.239c-5.198-4.342-13.457-6.515-24.777-6.515h-25.63v74.651h12.602V74.482h13.242c10.965,0,19.098-2.1,24.403-6.301     c5.302-4.199,7.956-10.822,7.956-19.864C205.6,39.276,203,32.582,197.804,28.239" fill="#1F0047" id="XMLID_336_"/><path d="M380.908,86.869c-2.563,0-4.557-0.802-5.98-2.403c-1.425-1.602-2.137-3.754-2.137-6.461     V49.17h14.953v-9.611h-14.953V21.724H360.83v55.961c0,5.981,1.797,10.733,5.393,14.257c3.594,3.525,7.937,5.286,13.028,5.286     c5.09,0,9.736-1.885,13.937-5.66l-4.913-8.438C385.929,85.625,383.472,86.869,380.908,86.869" fill="#1F0047" id="XMLID_185_"/><path d="M435.652,81.476c-3.276,3.454-7.261,5.179-11.961,5.179     c-4.698,0-8.794-1.708-12.282-5.125c-3.489-3.419-5.232-7.85-5.232-13.297s1.709-9.986,5.126-13.617     c3.418-3.631,7.51-5.446,12.282-5.446c4.769,0,8.791,1.815,12.067,5.446c3.275,3.631,4.913,8.154,4.913,13.564     C440.564,73.592,438.926,78.023,435.652,81.476 M440.351,49.385c-4.842-7.119-11.001-10.681-18.476-10.681     c-7.476,0-13.955,2.635-19.436,7.903c-5.484,5.269-8.224,12.319-8.224,21.145c0,8.829,2.67,15.951,8.009,21.36     c5.34,5.41,11.605,8.116,18.797,8.116c3.559,0,7.102-0.871,10.625-2.617c3.524-1.743,6.425-4.252,8.704-7.528v9.291h11.961     V39.559H440.35v9.826H440.351z" fill="#1F0047" id="XMLID_332_"/><path d="M629.612,81.37c-3.382,3.454-7.672,5.179-12.868,5.179     c-5.198,0-9.488-1.725-12.868-5.179c-3.383-3.453-5.073-7.92-5.073-13.403c0-5.482,1.69-9.949,5.073-13.403     c3.381-3.453,7.67-5.18,12.868-5.18c5.196,0,9.487,1.727,12.868,5.18c3.381,3.454,5.073,7.92,5.073,13.403     S632.993,77.917,629.612,81.37 M616.744,38.704c-8.544,0-15.664,2.831-21.358,8.491c-5.698,5.661-8.544,12.585-8.544,20.773     s2.846,15.111,8.544,20.772c5.695,5.66,12.814,8.49,21.358,8.49s15.662-2.83,21.36-8.49c5.695-5.661,8.542-12.584,8.542-20.772     s-2.847-15.112-8.542-20.773C632.406,41.535,625.288,38.704,616.744,38.704" fill="#E2066F" id="XMLID_329_"/><path d="M694.582,81.422c-3.49,3.418-7.582,5.127-12.282,5.127s-8.686-1.725-11.961-5.179     c-3.276-3.453-4.913-7.885-4.913-13.297c0-5.409,1.637-9.914,4.913-13.509c3.275-3.596,7.297-5.394,12.068-5.394     c4.769,0,8.865,1.798,12.282,5.394c3.418,3.595,5.125,8.116,5.125,13.562C699.814,73.573,698.07,78.005,694.582,81.422      M703.66,46.607c-5.412-5.268-11.927-7.903-19.545-7.903c-7.619,0-13.776,3.597-18.476,10.788V39.56h-11.961v77.533h11.961     V87.832c5.697,6.266,12.122,9.397,19.277,9.397c7.155,0,13.42-2.74,18.795-8.223c5.375-5.481,8.065-12.603,8.065-21.36     S709.069,51.876,703.66,46.607" fill="#E2066F" id="XMLID_326_"/><path d="M558.995,38.704c-3.988,0-7.708,0.999-11.161,2.99c-3.454,1.995-6.034,4.736-7.742,8.225     v-32.68H528.13v79.136h11.962V65.617c0-5.269,1.53-9.273,4.593-12.015c3.059-2.74,6.656-4.111,10.786-4.111     c8.685,0,13.029,5.232,13.029,15.698v31.186h11.962V61.558c0-7.404-1.976-13.063-5.928-16.98     C570.582,40.664,565.402,38.704,558.995,38.704" fill="#E2066F" id="XMLID_178_"/><path d="M513.828,60.491c-3.881-3.346-9.648-5.944-17.301-7.796     c-7.654-1.85-12.655-3.578-15.005-5.18c-2.349-1.601-3.524-3.915-3.524-6.942c0-3.025,1.175-5.286,3.524-6.78     c2.35-1.496,5.357-2.244,9.025-2.244c3.666,0,7.384,0.641,11.16,1.923c3.772,1.281,6.762,2.919,8.971,4.913l6.726-9.505     c-3.417-2.846-7.475-5.056-12.174-6.621c-4.699-1.566-9.435-2.35-14.203-2.35c-7.406,0-13.618,1.87-18.637,5.606     c-5.019,3.738-7.528,9.06-7.528,15.966s2.206,12.033,6.62,15.379c2.206,1.779,4.735,3.222,7.582,4.324     c2.848,1.105,7.013,2.315,12.497,3.631c5.481,1.319,9.343,2.777,11.586,4.379s3.365,3.844,3.365,6.728s-1.193,5.198-3.579,6.942     c-2.386,1.746-5.607,2.617-9.665,2.617c-8.116,0-15.949-3.275-23.495-9.826l-7.902,9.505c9.041,8.047,19.4,12.069,31.077,12.069     c7.973,0,14.417-2.029,19.33-6.088c4.912-4.057,7.369-9.343,7.369-15.859S517.708,63.839,513.828,60.491" fill="#E2066F" id="XMLID_177_"/></g><path d="M38.611,90.073c0.927-0.413,1.866-0.792,2.814-1.148c1.07-0.402,2.149-0.78,3.242-1.11    c1.361-0.41,2.733-0.781,4.124-1.076c1.875-0.398,3.772-0.693,5.684-0.879c-1.072,3.371-2.257,6.723-3.541,10.053    c0.055,0.645,0.085,1.294,0.102,1.944c2.585-0.51,5.256-0.783,7.991-0.783s5.406,0.273,7.991,0.783    c0.017-0.651,0.046-1.3,0.102-1.944c-1.284-3.33-2.469-6.682-3.541-10.053c1.912,0.186,3.809,0.48,5.684,0.879    c1.39,0.295,2.763,0.666,4.124,1.076c1.094,0.329,2.172,0.708,3.242,1.11c0.948,0.356,1.888,0.736,2.815,1.148    c6.577,2.929,12.573,7.273,17.49,12.911c12.325-10.644,20.137-26.372,20.137-43.935c0-32.056-25.987-58.043-58.043-58.043    S0.985,26.993,0.985,59.049c0,17.563,7.811,33.292,20.137,43.935C26.038,97.346,32.034,93.001,38.611,90.073z" fill="#A0DBE8" id="XMLID_176_"/><path d="M42.437,100.574c2.725-1.205,5.602-2.126,8.599-2.717c-0.017-0.651-0.046-1.3-0.102-1.944    c1.284-3.33,2.469-6.682,3.541-10.053c-1.912,0.186-3.809,0.48-5.684,0.879c-1.39,0.295-2.763,0.666-4.124,1.076    c-1.093,0.329-2.172,0.707-3.242,1.11l4.231,1.025L42.437,100.574z" fill="#525353" id="XMLID_175_"/><path d="M32.462,106.832c0.106-1.082,0.171-2.173,0.171-3.275c0-0.663,0.538-1.201,1.201-1.201    h1.055l3.722-12.282c-6.577,2.929-12.573,7.273-17.491,12.911c2.711,2.341,5.638,4.434,8.752,6.247    C30.701,108.395,31.565,107.594,32.462,106.832z" fill="#525353" id="XMLID_174_"/><path d="M79.443,90.073l3.722,12.282h1.054c0.664,0,1.201,0.538,1.201,1.201    c0,1.103,0.065,2.194,0.171,3.275c0.898,0.762,1.761,1.564,2.59,2.399c3.114-1.813,6.041-3.906,8.752-6.247    C92.016,97.346,86.02,93.002,79.443,90.073z" fill="#525353" id="XMLID_173_"/><path d="M72.398,89.95l4.23-1.025c-1.07-0.402-2.149-0.78-3.242-1.11    c-1.361-0.41-2.733-0.781-4.124-1.076c-1.875-0.398-3.772-0.693-5.684-0.879c1.072,3.371,2.257,6.723,3.541,10.053    c-0.055,0.645-0.085,1.294-0.102,1.944c2.998,0.591,5.875,1.512,8.6,2.717L72.398,89.95z" fill="#525353" id="XMLID_172_"/><path d="M59.027,102.355h8.179c-0.168-1.507-0.228-3.009-0.188-4.498c-2.585-0.51-5.256-0.783-7.991-0.783    s-5.405,0.273-7.991,0.783c0.039,1.489-0.021,2.991-0.188,4.498H59.027z" id="XMLID_171_"/><path d="M29.872,109.231c0.675,0.393,1.355,0.776,2.046,1.142c0.242-1.163,0.427-2.344,0.544-3.541    C31.565,107.594,30.701,108.395,29.872,109.231z" id="XMLID_170_"/><path d="M41.897,102.355h8.951c0.168-1.507,0.228-3.009,0.188-4.498c-2.997,0.591-5.875,1.512-8.599,2.717    L41.897,102.355z" id="XMLID_169_"/><path d="M85.591,106.832c0.117,1.197,0.302,2.378,0.544,3.541c0.691-0.366,1.372-0.749,2.046-1.142    C87.352,108.395,86.489,107.594,85.591,106.832z" id="XMLID_168_"/><path d="M76.157,102.355l-0.54-1.78c-2.725-1.205-5.602-2.126-8.6-2.717c-0.039,1.489,0.021,2.991,0.188,4.498    L76.157,102.355L76.157,102.355z" id="XMLID_167_"/><path d="M41.897,102.355l0.54-1.781l3.22-10.625l-4.231-1.025    c-0.948,0.356-1.888,0.736-2.814,1.148l-3.722,12.282h3.996L41.897,102.355L41.897,102.355z" fill="#AA9678" id="XMLID_166_"/><path d="M75.618,100.575l0.54,1.78h3.011h3.997l-3.722-12.282    c-0.927-0.413-1.867-0.792-2.815-1.148l-4.23,1.025L75.618,100.575z" fill="#AA9678" id="XMLID_165_"/><path d="M35.011,104.836c0.036-0.026,0.073-0.052,0.11-0.078h-0.105    C35.015,104.784,35.012,104.809,35.011,104.836z" fill="#C0B098" id="XMLID_164_"/><path d="M59.027,104.757h-8.54h-9.318h-6.047c-0.037,0.026-0.074,0.052-0.11,0.078    c-0.08,2.268-0.384,4.492-0.877,6.656c7.544,3.587,15.982,5.601,24.892,5.601V104.757z" fill="#C0B098" id="XMLID_163_"/><path d="M83.038,104.757h-0.105c0.037,0.026,0.074,0.052,0.11,0.078    C83.041,104.809,83.038,104.784,83.038,104.757z" fill="#AA9678" id="XMLID_162_"/><path d="M82.932,104.757h-6.046h-9.319h-8.539l0,0v12.335c8.91,0,17.348-2.013,24.892-5.601    c-0.493-2.164-0.796-4.387-0.877-6.656C83.006,104.809,82.969,104.784,82.932,104.757z" fill="#AA9678" id="XMLID_161_"/><rect fill="#786453" height="1.201" id="XMLID_160_" width="0" x="59.027" y="103.556"/><path d="M85.591,106.832c-0.106-1.082-0.171-2.173-0.171-3.275c0-0.663-0.538-1.201-1.201-1.201    h-1.054h-3.997h-3.011h-8.951h-8.179h-8.18h-8.951h-3.011h-3.996h-1.055c-0.664,0-1.201,0.538-1.201,1.201    c0,1.103-0.065,2.194-0.171,3.275c-0.117,1.197-0.302,2.378-0.544,3.541c0.731,0.387,1.468,0.763,2.216,1.119    c0.493-2.164,0.796-4.387,0.877-6.656c0.001-0.026,0.004-0.052,0.005-0.078h0.105h6.047h9.318h8.54l0,0h8.539h9.319h6.046h0.105    c0.001,0.026,0.004,0.052,0.005,0.078c0.08,2.268,0.384,4.492,0.877,6.656c0.749-0.356,1.486-0.732,2.216-1.119    C85.893,109.209,85.708,108.029,85.591,106.832z" fill="#8B7460" id="XMLID_159_"/><g id="XMLID_195_"><path d="M78.561,50.229L78.561,50.229c0.002,0.005,0.003,0.01,0.005,0.014     c0.726,2.086,1.55,4.199,1.973,6.373c-0.015,0.151-0.03,0.307-0.045,0.468c-0.038,0.234-0.077,0.441-0.116,0.627     c0.061-0.286,0.12-0.627,0.179-1.024C80.136,54.483,79.297,52.343,78.561,50.229c-0.003,0.005-0.005,0.01-0.008,0.016     C78.556,50.24,78.558,50.234,78.561,50.229L78.561,50.229z" fill="none" id="XMLID_158_"/><path d="M95.464,63.351c-0.032,0.019-0.064,0.035-0.097,0.052     C95.4,63.386,95.432,63.369,95.464,63.351z" fill="none" id="XMLID_157_"/><path d="M95.838,63.067c-0.042,0.04-0.083,0.083-0.127,0.118     C95.755,63.15,95.796,63.107,95.838,63.067z" fill="none" id="XMLID_156_"/><path d="M76.815,48.702c-1.334-1.126-2.737-2.152-4.209-3.059l0,0     C74.078,46.549,75.48,47.576,76.815,48.702z" fill="none" id="XMLID_155_"/><path d="M90.276,62.612c0.01,0.012,0.02,0.025,0.031,0.037     C90.297,62.637,90.287,62.625,90.276,62.612z" fill="none" id="XMLID_154_"/><path d="M92.735,65.678c0.039,0.05,0.079,0.099,0.118,0.149     C92.814,65.777,92.774,65.728,92.735,65.678z" fill="none" id="XMLID_153_"/><path d="M80.36,57.793c-0.039,0.175-0.078,0.332-0.118,0.45     C80.282,58.124,80.321,57.967,80.36,57.793z" fill="none" id="XMLID_152_"/><path d="M74.67,78.966c-0.888,1.48-1.457,2.883-1.786,4.199     C73.213,81.849,73.782,80.446,74.67,78.966c0.292-0.487,0.578-0.965,0.856-1.435c-0.276,0.466-0.559,0.939-0.849,1.422     C74.675,78.958,74.673,78.962,74.67,78.966z" fill="none" id="XMLID_151_"/><path d="M78.567,50.219c0.052-0.104,0.105-0.204,0.157-0.308l-0.014,0.012     C78.662,50.019,78.614,50.12,78.567,50.219c0.349,0.302,0.696,0.61,1.037,0.922C79.263,50.829,78.917,50.521,78.567,50.219z" fill="none" id="XMLID_150_"/><path d="M67.046,57.838c0.001,0.004,0.003,0.008,0.004,0.012     C67.049,57.846,67.047,57.842,67.046,57.838z" fill="none" id="XMLID_149_"/><path d="M66.611,56.864L66.611,56.864L66.611,56.864z" fill="none" id="XMLID_148_"/><path d="M70.542,44.462c-0.08-0.045-0.143-0.079-0.179-0.097     C70.399,44.383,70.462,44.417,70.542,44.462z" fill="none" id="XMLID_147_"/><path d="M70.837,44.627c-0.094-0.053-0.173-0.097-0.246-0.138     C70.663,44.53,70.742,44.574,70.837,44.627z" fill="none" id="XMLID_146_"/><path d="M72.741,49.304c0.001,0.137-0.002,0.273-0.001,0.41     C72.739,49.577,72.743,49.441,72.741,49.304z" fill="none" id="XMLID_145_"/><path d="M66.85,57.336c0.001,0.003,0.003,0.006,0.005,0.01     C66.853,57.342,66.852,57.339,66.85,57.336z" fill="none" id="XMLID_144_"/><path d="M95.104,68.743c0.072,0.095,0.145,0.189,0.217,0.283     C95.249,68.931,95.176,68.837,95.104,68.743z" fill="none" id="XMLID_143_"/><path d="M72.734,51.133c-0.012,0.609-0.033,1.218-0.064,1.827     C72.701,52.351,72.722,51.742,72.734,51.133z" fill="none" id="XMLID_142_"/><path d="M67.192,58.364c0.001,0.005,0.002,0.009,0.003,0.014     C67.195,58.373,67.193,58.369,67.192,58.364z" fill="none" id="XMLID_141_"/><path d="M72.499,45.574c-0.212-0.122-0.768-0.44-1.269-0.725     C71.724,45.13,72.275,45.446,72.499,45.574z" fill="none" id="XMLID_140_"/><path d="M71.198,44.832c-0.126-0.071-0.245-0.139-0.355-0.201     C70.952,44.692,71.073,44.76,71.198,44.832z" fill="none" id="XMLID_139_"/><path d="M72.592,45.627L72.592,45.627c-0.004-0.002-0.028-0.016-0.038-0.022     C72.569,45.615,72.587,45.625,72.592,45.627z" fill="none" id="XMLID_138_"/><path d="M97.044,59.728c0.001-0.046,0.008-0.089,0.008-0.135c0-0.006,0.001-0.011,0.001-0.017     c0-0.005-0.001-0.01-0.001-0.016c0-0.043-0.007-0.083-0.008-0.126c0.001,0.048,0.008,0.093,0.008,0.142     C97.053,59.628,97.045,59.677,97.044,59.728z" fill="none" id="XMLID_137_"/><path d="M87.541,59.368c0.056,0.064,0.11,0.128,0.166,0.192c-0.001-0.001-0.002-0.002-0.003-0.003     h0.014C87.694,59.529,87.631,59.462,87.541,59.368L87.541,59.368z" fill="none" id="XMLID_136_"/><path d="M79.604,51.141c0.773,0.707,1.528,1.433,2.274,2.168     C81.133,52.573,80.377,51.848,79.604,51.141z" fill="none" id="XMLID_135_"/><path d="M94.717,55.573c0.143,0,0.28,0.03,0.416,0.072C94.998,55.603,94.86,55.573,94.717,55.573z" fill="none" id="XMLID_134_"/><path d="M92.485,58.457c-0.012,0.069-0.027,0.135-0.037,0.206     C92.458,58.592,92.473,58.526,92.485,58.457z" fill="none" id="XMLID_133_"/><path d="M95.257,55.691c0.095,0.039,0.188,0.09,0.279,0.148     C95.445,55.78,95.352,55.731,95.257,55.691z" fill="none" id="XMLID_132_"/><path d="M96.146,56.43c0.031,0.042,0.061,0.085,0.091,0.129     C96.207,56.515,96.177,56.472,96.146,56.43z" fill="none" id="XMLID_131_"/><path d="M97.001,58.744c-0.001-0.009-0.004-0.018-0.005-0.027c-0.002-0.016-0.006-0.029-0.008-0.045     c0.003,0.026,0.01,0.049,0.014,0.076C97.001,58.746,97.001,58.745,97.001,58.744z" fill="none" id="XMLID_130_"/><path d="M96.996,60.438c0.002-0.011,0.005-0.021,0.006-0.033c0-0.001,0-0.002,0-0.003     c-0.004,0.03-0.012,0.057-0.016,0.087C96.989,60.472,96.994,60.456,96.996,60.438z" fill="none" id="XMLID_129_"/><path d="M93.197,56.56c0.03-0.045,0.061-0.088,0.092-0.13C93.258,56.472,93.227,56.515,93.197,56.56     z" fill="none" id="XMLID_128_"/><path d="M94.301,55.645c0.135-0.042,0.273-0.072,0.416-0.072     C94.574,55.573,94.436,55.603,94.301,55.645z" fill="none" id="XMLID_127_"/><path d="M83.992,55.464c-0.357-0.375-0.721-0.744-1.083-1.113     C83.272,54.72,83.634,55.089,83.992,55.464z" fill="none" id="XMLID_126_"/><path d="M94.717,42.882L94.717,42.882c0-0.004,0-0.016,0-0.016v5.397L92.65,57.73     c-0.007,0.023-0.01,0.05-0.016,0.073c0.005-0.019,0.011-0.036,0.017-0.054l0,0l0,0l2.067-9.467v-5.397l0,0L94.717,42.882     L94.717,42.882z" fill="none" id="XMLID_125_"/><path d="M85.925,57.549c-0.188-0.208-0.378-0.416-0.567-0.623     C85.548,57.133,85.736,57.341,85.925,57.549z" fill="none" id="XMLID_124_"/><path d="M96.784,57.748c0.023,0.075,0.051,0.145,0.071,0.223c0-0.001,0-0.002-0.001-0.003     C96.834,57.891,96.807,57.823,96.784,57.748L96.784,57.748L96.784,57.748z" fill="none" id="XMLID_123_"/><path d="M92.381,59.557h0.002c0-0.038,0.006-0.073,0.006-0.11     C92.388,59.485,92.381,59.519,92.381,59.557z" fill="none" id="XMLID_122_"/><path d="M93.898,55.84c0.091-0.058,0.183-0.109,0.279-0.148     C94.082,55.731,93.989,55.78,93.898,55.84z" fill="none" id="XMLID_121_"/><path d="M93.476,56.197c0.096-0.104,0.195-0.2,0.3-0.279C93.671,55.998,93.571,56.092,93.476,56.197     z" fill="none" id="XMLID_120_"/><path d="M96.855,61.18c0-0.001,0-0.002,0.001-0.003c-0.052,0.205-0.115,0.401-0.186,0.587     c0.073-0.188,0.139-0.384,0.193-0.592L96.855,61.18L96.855,61.18z" fill="none" id="XMLID_119_"/><path d="M26.118,57.782c0.085-0.135,0.174-0.267,0.26-0.401     C26.292,57.515,26.203,57.647,26.118,57.782z" fill="none" id="XMLID_118_"/><path d="M95.658,55.918c0.105,0.079,0.204,0.175,0.3,0.279     C95.863,56.092,95.763,55.998,95.658,55.918z" fill="none" id="XMLID_117_"/><path d="M27.764,55.364c0.042-0.057,0.081-0.117,0.124-0.174     C27.846,55.247,27.806,55.307,27.764,55.364z" fill="none" id="XMLID_116_"/><path d="M67.327,59.529l0.002-0.001c0-0.003,0-0.006,0-0.009l0,0h0.01l-0.014-0.031     C67.325,59.502,67.327,59.515,67.327,59.529z" fill="none" id="XMLID_115_"/><path d="M23.596,62.407c-0.1,0.212-0.199,0.424-0.295,0.638     C23.397,62.831,23.496,62.619,23.596,62.407z" fill="none" id="XMLID_114_"/><path d="M22.326,65.372c-0.013,0.035-0.028,0.069-0.041,0.104     C22.298,65.441,22.313,65.407,22.326,65.372z" fill="none" id="XMLID_113_"/><polygon fill="none" id="XMLID_112_" points="96.155,44.259 96.15,44.253 96.15,44.253    "/><path d="M33.794,48.854l-0.004,0.004L33.794,48.854z" fill="none" id="XMLID_111_"/><path d="M31.523,50.966c0.115-0.115,0.232-0.227,0.348-0.341     C31.755,50.739,31.637,50.851,31.523,50.966z" fill="none" id="XMLID_110_"/><path d="M29.476,53.203c0.117-0.138,0.233-0.277,0.352-0.413     C29.709,52.926,29.593,53.064,29.476,53.203z" fill="none" id="XMLID_109_"/><path d="M96.785,57.749l-2.068-9.467L96.785,57.749z" fill="none" id="XMLID_108_"/><path d="M60.739,64.919c-0.039-0.008-0.076-0.02-0.115-0.029     C60.663,64.899,60.7,64.911,60.739,64.919z" fill="none" id="XMLID_107_"/><path d="M61.292,65.006c-0.044-0.005-0.086-0.014-0.129-0.02     C61.206,64.991,61.248,65.001,61.292,65.006z" fill="none" id="XMLID_106_"/><path d="M24.869,59.905c-0.131,0.237-0.254,0.478-0.38,0.717     C24.615,60.383,24.738,60.142,24.869,59.905z" fill="none" id="XMLID_105_"/><path d="M59.194,64.339c-0.002-0.001-0.005-0.003-0.007-0.004     C59.19,64.336,59.192,64.338,59.194,64.339z" fill="none" id="XMLID_104_"/><path d="M60.202,64.777c-0.025-0.008-0.05-0.019-0.075-0.028     C60.152,64.758,60.176,64.769,60.202,64.777z" fill="none" id="XMLID_103_"/><path d="M59.685,64.583c-0.013-0.006-0.025-0.013-0.038-0.018     C59.66,64.571,59.673,64.577,59.685,64.583z" fill="none" id="XMLID_102_"/><path d="M56.798,61.631c0.002,0.004,0.003,0.009,0.005,0.013     C56.801,61.64,56.8,61.635,56.798,61.631z" fill="none" id="XMLID_101_"/><path d="M56.54,58.32c-0.009,0.04-0.022,0.079-0.031,0.12C56.518,58.4,56.531,58.361,56.54,58.32z" fill="none" id="XMLID_100_"/><path d="M57.105,56.871c-0.003,0.006-0.007,0.011-0.01,0.016     C57.099,56.882,57.102,56.877,57.105,56.871z" fill="none" id="XMLID_99_"/><path d="M58.919,54.961c-0.001,0.001-0.002,0.001-0.003,0.001     C58.917,54.962,58.918,54.962,58.919,54.961z" fill="none" id="XMLID_98_"/><path d="M56.683,57.816c-0.01,0.029-0.022,0.056-0.031,0.085     C56.661,57.872,56.674,57.844,56.683,57.816z" fill="none" id="XMLID_97_"/><path d="M56.872,57.334c-0.007,0.016-0.016,0.032-0.023,0.048     C56.856,57.366,56.865,57.35,56.872,57.334z" fill="none" id="XMLID_96_"/><path d="M62.935,54.205c-0.008-0.002-0.017-0.002-0.025-0.004     C62.918,54.202,62.926,54.203,62.935,54.205z" fill="none" id="XMLID_95_"/><path d="M63.929,54.506c-0.005-0.002-0.01-0.004-0.016-0.006     C63.918,54.502,63.924,54.504,63.929,54.506z" fill="none" id="XMLID_94_"/><path d="M59.834,54.49c-0.008,0.003-0.017,0.006-0.025,0.009     C59.817,54.496,59.826,54.494,59.834,54.49z" fill="none" id="XMLID_93_"/><path d="M60.83,54.198c-0.012,0.002-0.024,0.003-0.036,0.005C60.806,54.201,60.818,54.2,60.83,54.198     z" fill="none" id="XMLID_92_"/><path d="M67.287,58.917c0,0.003,0.001,0.005,0.001,0.008C67.288,58.922,67.287,58.919,67.287,58.917z     " fill="none" id="XMLID_91_"/><path d="M61.891,41.968c0-0.085,0-0.165,0-0.237C61.891,41.804,61.891,41.882,61.891,41.968z" fill="none" id="XMLID_90_"/><path d="M61.891,41.588c0-0.055,0-0.105,0-0.143C61.891,41.483,61.891,41.53,61.891,41.588z" fill="none" id="XMLID_89_"/><path d="M61.891,41.367c0-0.02,0-0.031,0-0.031S61.891,41.347,61.891,41.367z" fill="none" id="XMLID_88_"/><path d="M61.891,42.699v-0.084v-0.242c0-0.08,0-0.158,0-0.233     C61.891,42.317,61.891,42.507,61.891,42.699z" fill="none" id="XMLID_87_"/><path d="M96.319,62.477c-0.059,0.095-0.122,0.18-0.187,0.264     C96.197,62.657,96.26,62.572,96.319,62.477z" fill="none" id="XMLID_86_"/><path d="M56.441,58.866c-0.005,0.044-0.015,0.086-0.02,0.13     C56.426,58.952,56.436,58.91,56.441,58.866z" fill="none" id="XMLID_85_"/><path d="M56.496,60.623c0.001,0.007,0.002,0.014,0.003,0.022     C56.498,60.638,56.497,60.63,56.496,60.623z" fill="none" id="XMLID_84_"/><path d="M96.609,61.907c-0.056,0.133-0.118,0.259-0.183,0.38     C96.492,62.167,96.552,62.041,96.609,61.907z" fill="none" id="XMLID_83_"/><path d="M75.646,94.072c-0.175-0.201-0.356-0.417-0.543-0.662     C75.29,93.656,75.471,93.871,75.646,94.072L75.646,94.072z" fill="#525353" id="XMLID_82_"/><path d="M76.981,95.398c0,0,0.004,0.014,0.012,0.038C76.985,95.412,76.981,95.398,76.981,95.398     s-0.588-0.466-1.335-1.326l0,0C76.392,94.932,76.981,95.398,76.981,95.398z" fill="#AA9678" id="XMLID_81_"/><ellipse cx="94.702" cy="42.885" fill="#FFFFFF" id="XMLID_80_" rx="0.001" ry="0.001" transform="matrix(0.9968 -0.0797 0.0797 0.9968 -3.1168 7.6843)"/><path d="M97.052,59.593c0-0.006,0.001-0.011,0.001-0.017l0,0     C97.053,59.582,97.052,59.588,97.052,59.593z" fill="#FFFFFF" id="XMLID_79_"/><path d="M97.673,46.132L97.673,46.132L97.673,46.132c-0.01-0.013-0.02-0.025-0.029-0.038h0.001     c-0.482-0.67-0.98-1.281-1.49-1.836c-0.001-0.002-0.003-0.004-0.005-0.005c0.001,0.002,0.003,0.004,0.005,0.005     c-0.005-0.005-0.009-0.011-0.013-0.016l0,0c-0.232-0.251-0.466-0.492-0.703-0.719c-0.09-0.086-0.182-0.161-0.272-0.243     c-0.149-0.135-0.298-0.275-0.449-0.4v0.003v5.397l2.067,9.467l0,0c0.022,0.074,0.05,0.142,0.069,0.219l1.432,1.605l0.014-0.016     h1.499c0.002-0.139,0.01-0.276,0.01-0.415v-0.002c0-4.465-0.734-8.756-2.063-12.775l0,0     C97.721,46.287,97.699,46.209,97.673,46.132z" fill="#BBBCBD" id="XMLID_78_"/><path d="M97.053,59.576c0-0.005-0.001-0.01-0.001-0.016     C97.052,59.566,97.053,59.571,97.053,59.576L97.053,59.576z" fill="#BBBCBD" id="XMLID_77_"/><path d="M96.988,58.672c0.002,0.015,0.006,0.029,0.008,0.045c0.001,0.009,0.004,0.018,0.005,0.027     c0,0.001,0,0.002,0,0.004c0.027,0.222,0.038,0.453,0.043,0.687c0.001,0.043,0.008,0.083,0.008,0.126     c0,0.005,0.001,0.01,0.001,0.016c0,0.006-0.001,0.011-0.001,0.017c0,0.046-0.007,0.089-0.008,0.135     c-0.005,0.229-0.015,0.456-0.042,0.674c0,0.001,0,0.002,0,0.003c-0.001,0.011-0.004,0.021-0.006,0.033     c-0.002,0.018-0.007,0.034-0.01,0.051c-0.032,0.237-0.074,0.468-0.13,0.687c0,0.001,0,0.002-0.001,0.003l0,0l0.008-0.009     c0.001-0.004,0.002-0.007,0.003-0.011l0,0l1.42-1.588l-1.432-1.605c0,0.001,0,0.002,0.001,0.003     C96.912,58.194,96.955,58.429,96.988,58.672z" fill="#676A6A" id="XMLID_76_"/><path d="M96.986,60.49c0.004-0.03,0.012-0.057,0.016-0.087c0.027-0.218,0.037-0.445,0.042-0.674     c0.001-0.052,0.009-0.1,0.009-0.152c0-0.049-0.007-0.094-0.008-0.142c-0.005-0.234-0.016-0.465-0.043-0.687     c-0.003-0.026-0.01-0.05-0.014-0.076c-0.033-0.242-0.076-0.477-0.133-0.701c-0.02-0.078-0.048-0.147-0.071-0.223     c-0.137-0.454-0.325-0.856-0.547-1.189c-0.03-0.044-0.06-0.088-0.091-0.129c-0.061-0.082-0.122-0.162-0.187-0.233     c-0.096-0.104-0.195-0.2-0.3-0.279c-0.04-0.03-0.082-0.051-0.123-0.078c-0.09-0.058-0.183-0.109-0.279-0.148     c-0.041-0.017-0.082-0.033-0.124-0.046c-0.135-0.042-0.273-0.072-0.416-0.072s-0.28,0.03-0.416,0.072     c-0.042,0.013-0.083,0.029-0.124,0.046c-0.096,0.039-0.188,0.09-0.279,0.148c-0.04,0.027-0.083,0.047-0.122,0.078     c-0.105,0.079-0.204,0.175-0.3,0.279c-0.065,0.071-0.126,0.151-0.187,0.233c-0.031,0.042-0.062,0.086-0.092,0.13     c-0.222,0.334-0.41,0.735-0.547,1.189c-0.006,0.018-0.012,0.036-0.017,0.054c-0.06,0.208-0.108,0.428-0.148,0.654     c-0.012,0.069-0.028,0.135-0.037,0.206c-0.036,0.252-0.055,0.515-0.059,0.784c-0.001,0.037-0.006,0.073-0.006,0.11h0.009     c0,2.211,1.046,4.003,2.336,4.003c0.222,0,0.436-0.058,0.639-0.158c0.033-0.016,0.065-0.033,0.097-0.052     c0.085-0.048,0.167-0.102,0.247-0.165c0.044-0.035,0.085-0.078,0.127-0.118c0.103-0.096,0.201-0.205,0.294-0.326     c0.064-0.084,0.128-0.169,0.187-0.264c0.038-0.06,0.072-0.126,0.107-0.19c0.065-0.12,0.127-0.246,0.183-0.38     c0.02-0.048,0.042-0.094,0.061-0.144c0.071-0.186,0.134-0.381,0.186-0.587C96.912,60.958,96.954,60.727,96.986,60.49z      M94.801,59.043c-0.484,0-0.876-0.672-0.876-1.501s0.392-1.501,0.876-1.501c0.484,0,0.876,0.672,0.876,1.501     S95.285,59.043,94.801,59.043z" id="XMLID_219_"/><ellipse cx="94.801" cy="57.542" fill="#FFFFFF" id="XMLID_73_" rx="0.876" ry="1.501"/><path d="M92.65,57.749L92.65,57.749c0.137-0.455,0.325-0.856,0.547-1.189     c0.03-0.045,0.061-0.088,0.092-0.13c0.06-0.082,0.122-0.161,0.187-0.233c0.096-0.105,0.196-0.199,0.3-0.279     c0.04-0.03,0.082-0.051,0.122-0.078c0.09-0.059,0.183-0.109,0.279-0.148c0.041-0.017,0.082-0.033,0.124-0.046     c0.135-0.042,0.273-0.072,0.416-0.072s0.281,0.029,0.416,0.072c0.042,0.013,0.083,0.029,0.124,0.046     c0.095,0.039,0.188,0.089,0.279,0.148c0.041,0.027,0.083,0.048,0.123,0.078c0.105,0.08,0.204,0.174,0.3,0.279     c0.065,0.071,0.127,0.151,0.187,0.233c0.031,0.042,0.061,0.085,0.091,0.129c0.222,0.334,0.409,0.735,0.547,1.189v0.001l0,0     l-2.067-9.467L92.65,57.749L92.65,57.749z" fill="#909393" id="XMLID_72_"/><path d="M67.325,59.488c-0.003-0.19-0.015-0.378-0.037-0.564c0-0.003-0.001-0.005-0.001-0.008     c-0.022-0.182-0.052-0.362-0.091-0.539c-0.001-0.005-0.002-0.009-0.003-0.014c-0.039-0.175-0.086-0.346-0.142-0.514     c-0.001-0.004-0.003-0.008-0.004-0.012c-0.056-0.168-0.12-0.333-0.191-0.493c-0.001-0.003-0.003-0.007-0.005-0.01     c-0.072-0.161-0.152-0.319-0.239-0.471l0,0c-0.266-0.465-0.598-0.888-0.983-1.255c-0.489-0.466-1.065-0.843-1.699-1.104     c-0.005-0.002-0.01-0.004-0.016-0.006c-0.313-0.128-0.64-0.227-0.979-0.295c-0.008-0.002-0.017-0.002-0.025-0.004     c-0.339-0.066-0.69-0.103-1.049-0.103c-0.353,0-0.697,0.036-1.031,0.1c-0.012,0.002-0.024,0.003-0.036,0.005     c-0.332,0.066-0.653,0.163-0.96,0.287c-0.008,0.003-0.017,0.006-0.025,0.009c-0.312,0.127-0.61,0.282-0.89,0.462     c-0.001,0.001-0.002,0.001-0.003,0.001c-0.283,0.182-0.548,0.389-0.792,0.618l-0.006,0.019l-0.02,0.005     c-0.39,0.37-0.725,0.797-0.993,1.267c-0.003,0.006-0.007,0.011-0.01,0.016c-0.082,0.144-0.155,0.294-0.224,0.446     c-0.007,0.016-0.016,0.032-0.023,0.048c-0.062,0.141-0.115,0.287-0.165,0.434c-0.01,0.029-0.022,0.056-0.031,0.085     c-0.044,0.137-0.079,0.278-0.112,0.42c-0.009,0.04-0.022,0.079-0.031,0.12c-0.029,0.14-0.049,0.282-0.068,0.426     c-0.005,0.044-0.015,0.086-0.02,0.13c-0.02,0.187-0.03,0.378-0.03,0.57c0,0.362,0.037,0.715,0.104,1.057     c0.001,0.007,0.002,0.014,0.003,0.022c0.069,0.341,0.169,0.671,0.299,0.986c0.002,0.004,0.003,0.009,0.005,0.013     c0.263,0.638,0.644,1.215,1.114,1.705c0.372,0.387,0.8,0.72,1.27,0.986c0.002,0.001,0.005,0.003,0.007,0.004     c0.147,0.082,0.299,0.157,0.453,0.226c0.013,0.006,0.025,0.013,0.038,0.018c0.143,0.063,0.291,0.116,0.441,0.167     c0.025,0.009,0.05,0.019,0.075,0.028c0.138,0.044,0.28,0.079,0.423,0.112c0.039,0.009,0.076,0.021,0.115,0.029     c0.139,0.029,0.281,0.048,0.424,0.067c0.043,0.006,0.086,0.015,0.129,0.02c0.187,0.019,0.376,0.03,0.568,0.03     c0.755,0,1.474-0.153,2.129-0.43c0.327-0.138,0.638-0.308,0.929-0.504c0.582-0.393,1.084-0.895,1.477-1.477     c0.196-0.291,0.366-0.602,0.504-0.929c0.277-0.654,0.43-1.374,0.43-2.129c0-0.013-0.002-0.025-0.002-0.038l0,0     C67.327,59.515,67.325,59.502,67.325,59.488L67.325,59.488z M61.86,58.847c-1.135,0-2.054-0.92-2.054-2.054     c0-1.135,0.92-2.054,2.054-2.054c1.135,0,2.054,0.92,2.054,2.054C63.915,57.927,62.995,58.847,61.86,58.847z" id="XMLID_214_"/><circle cx="61.86" cy="56.792" fill="#FFFFFF" id="XMLID_69_" r="2.054"/><path d="M58.098,55.605L58.098,55.605l0.02-0.005l0.006-0.019l0,0l3.766-11.518     c0,0,0-0.682,0-1.363c0-0.192,0-0.382,0-0.559c0-0.059,0-0.117,0-0.172c0-0.086,0-0.164,0-0.237c0-0.051,0-0.101,0-0.143     c0-0.057,0-0.104,0-0.143c0-0.032,0-0.06,0-0.078c0-0.02,0-0.031,0-0.031c-2.097-0.43-4.254-0.666-6.462-0.666     c-0.737,0-1.468,0.031-2.194,0.081c-0.106,0.007-0.212,0.014-0.318,0.022c-3.781,0.287-7.503,1.273-10.95,2.846     c-2.956,1.35-5.703,3.128-8.172,5.236l0,0c-0.001,0.001-0.003,0.003-0.004,0.004c-0.663,0.563-1.298,1.158-1.919,1.767     c-0.116,0.114-0.234,0.226-0.348,0.341c-0.584,0.589-1.149,1.197-1.695,1.823c-0.119,0.136-0.235,0.275-0.352,0.413     c-0.548,0.647-1.082,1.306-1.588,1.988c-0.042,0.057-0.082,0.117-0.124,0.174c-0.483,0.657-0.942,1.331-1.385,2.017     c-0.086,0.134-0.175,0.266-0.26,0.401c-0.358,0.568-0.692,1.152-1.022,1.737h17.127h0.03L58.098,55.605z" fill="#BBBCBD" id="XMLID_68_"/><path d="M72.583,54.308c0.035-0.449,0.064-0.899,0.087-1.348c0.031-0.609,0.052-1.218,0.064-1.827     c0.009-0.473,0.008-0.946,0.006-1.419c-0.001-0.137,0.003-0.273,0.001-0.41c-0.013-1.219-0.06-2.44-0.135-3.661l0,0l0,0     c-0.003-0.002-0.007-0.005-0.01-0.007c-0.002-0.003-0.003-0.006-0.005-0.009c-0.005-0.003-0.022-0.013-0.038-0.022     c-0.015-0.008-0.027-0.016-0.055-0.031c-0.224-0.129-0.775-0.444-1.269-0.725c-0.01-0.006-0.021-0.012-0.031-0.018     c-0.125-0.071-0.246-0.139-0.355-0.201c-0.002-0.001-0.005-0.003-0.006-0.004c-0.094-0.053-0.173-0.097-0.246-0.138     c-0.015-0.008-0.035-0.02-0.048-0.027c-0.08-0.045-0.143-0.079-0.179-0.097c-0.789-0.409-1.594-0.788-2.412-1.134     c-1.951-0.824-4.579-1.546-6.06-1.895v1.037v0.242v0.084c0,0.682,0,1.363,0,1.363l3.733,11.537l0.004,0.01     c0.385,0.367,0.717,0.79,0.983,1.255l0,0c0.087,0.153,0.167,0.31,0.239,0.471c0.002,0.003,0.003,0.006,0.005,0.01     c0.072,0.16,0.135,0.325,0.191,0.493c0.001,0.004,0.003,0.008,0.004,0.012c0.055,0.168,0.103,0.339,0.142,0.514     c0.001,0.005,0.002,0.009,0.003,0.014c0.039,0.176,0.07,0.356,0.091,0.539c0,0.003,0.001,0.005,0.001,0.008     c0.022,0.185,0.034,0.373,0.037,0.564l0,0l0.014,0.031h4.571c0.309-1.673,0.524-3.368,0.661-5.07     C72.574,54.402,72.579,54.355,72.583,54.308z" fill="#E2DDDB" id="XMLID_67_"/><path d="M78.561,50.229c-0.003,0.005-0.005,0.011-0.008,0.016     C78.556,50.24,78.559,50.235,78.561,50.229L78.561,50.229z" fill="#FBB040" id="XMLID_66_"/><path d="M67.364,75.959c1.037-1.032,2.016-2.02,2.95-2.989c0.555-0.575,1.097-1.145,1.615-1.707     c3.82-4.147,6.625-8.028,8.312-13.02c0.04-0.119,0.08-0.275,0.118-0.45c0.006-0.027,0.012-0.053,0.018-0.081     c0.04-0.186,0.078-0.393,0.116-0.627c0.015-0.161,0.031-0.317,0.045-0.468c-0.424-2.174-1.247-4.286-1.973-6.373     c0.003,0.007,0.005,0.014,0.008,0.021c-0.004-0.004-0.018-0.017-0.021-0.02c-0.139-0.132-0.285-0.255-0.426-0.385     c-0.43-0.396-0.867-0.783-1.312-1.158c-1.335-1.126-2.737-2.152-4.209-3.059l0,0c0.075,1.221,0.122,2.442,0.135,3.661     c0.002,0.137-0.002,0.273-0.001,0.41c0.002,0.473,0.003,0.946-0.006,1.419c-0.012,0.609-0.033,1.218-0.064,1.827     c-0.023,0.45-0.052,0.899-0.087,1.348c-0.004,0.047-0.009,0.093-0.012,0.14c-0.136,1.703-0.352,3.397-0.661,5.07l-0.537,2.539     c-1.121,4.546-3.399,8.67-5.272,12.928c-0.497,1.129-0.968,2.271-1.381,3.434c-0.038,0.107-0.078,0.219-0.117,0.329     c0.585-0.615,1.103-1.146,1.497-1.536C66.529,76.787,66.951,76.37,67.364,75.959z" fill="#FBB040" id="XMLID_65_"/><path d="M58.124,55.581L58.124,55.581c0.244-0.229,0.509-0.436,0.792-0.618     c0.001-0.001,0.002-0.001,0.003-0.001c0.28-0.18,0.578-0.335,0.89-0.462c0.008-0.003,0.017-0.006,0.025-0.009     c0.307-0.124,0.628-0.221,0.96-0.287c0.012-0.002,0.024-0.003,0.036-0.005c0.334-0.064,0.678-0.1,1.031-0.1     c0.359,0,0.709,0.037,1.049,0.103c0.009,0.002,0.017,0.002,0.025,0.004c0.339,0.068,0.666,0.168,0.979,0.295     c0.005,0.002,0.01,0.004,0.016,0.006c0.635,0.261,1.21,0.638,1.699,1.104l-0.004-0.01l-3.733-11.537L58.124,55.581z" fill="#909393" id="XMLID_64_"/><path d="M56.798,61.631c-0.129-0.315-0.23-0.645-0.299-0.986     c-0.001-0.007-0.002-0.014-0.003-0.022c-0.067-0.342-0.104-0.695-0.104-1.057c0-0.193,0.01-0.383,0.03-0.57     c0.005-0.044,0.014-0.086,0.02-0.13c0.019-0.143,0.038-0.286,0.068-0.426c0.009-0.041,0.021-0.08,0.031-0.12     c0.033-0.142,0.068-0.283,0.112-0.42c0.009-0.029,0.021-0.056,0.031-0.085c0.05-0.147,0.103-0.293,0.165-0.434     c0.007-0.016,0.016-0.032,0.023-0.048c0.069-0.152,0.142-0.302,0.224-0.446c0.003-0.006,0.007-0.011,0.01-0.016     c0.268-0.47,0.603-0.897,0.993-1.267l0,0l-15.845,3.914h-0.03l15.694,3.83c-0.47-0.49-0.851-1.067-1.114-1.705     C56.801,61.64,56.8,61.635,56.798,61.631z" fill="#676A6A" id="XMLID_63_"/><path d="M92.448,58.662c0.01-0.071,0.025-0.137,0.037-0.206c0.04-0.225,0.087-0.445,0.148-0.654     c0.007-0.023,0.01-0.05,0.016-0.073l2.067-9.467v-5.398c-1.689-1.395-3.498-2.158-5.382-2.158c-2.379,0-4.598,1.314-6.257,2.937     c-1.816,1.776-3.218,4.011-4.353,6.266c-0.052,0.104-0.105,0.203-0.157,0.308c0.35,0.303,0.696,0.61,1.037,0.922     c0.773,0.707,1.529,1.432,2.274,2.168c0.348,0.343,0.688,0.693,1.03,1.042c0.363,0.369,0.726,0.738,1.083,1.113     c0.459,0.483,0.915,0.97,1.366,1.462c0.19,0.207,0.379,0.415,0.567,0.623c0.543,0.602,1.084,1.206,1.616,1.819l0.001,0.001     c0.089,0.094,0.152,0.16,0.176,0.188h4.662c0-0.038,0.008-0.072,0.008-0.11C92.394,59.177,92.412,58.914,92.448,58.662z" fill="#E2DDDB" id="XMLID_62_"/><path d="M78.566,50.243c-0.002-0.005-0.003-0.01-0.005-0.014l0,0     c-0.003,0.005-0.005,0.01-0.008,0.016c0.003,0.003,0.017,0.016,0.021,0.02C78.572,50.258,78.569,50.251,78.566,50.243z" fill="#E2DDDB" id="XMLID_61_"/><path d="M22.285,65.476c0.013-0.035,0.028-0.069,0.041-0.104c0.3-0.785,0.629-1.56,0.975-2.327     c0.096-0.214,0.196-0.425,0.295-0.638c0.283-0.602,0.582-1.196,0.892-1.785c0.126-0.24,0.249-0.48,0.38-0.717     c0.072-0.131,0.154-0.256,0.227-0.387c0.331-0.585,0.664-1.169,1.022-1.737c0.085-0.135,0.174-0.267,0.26-0.401     c0.443-0.685,0.903-1.36,1.385-2.017c0.042-0.057,0.081-0.117,0.124-0.174c0.506-0.681,1.04-1.341,1.588-1.988     c0.117-0.138,0.233-0.277,0.352-0.413c0.546-0.626,1.11-1.234,1.695-1.823c0.115-0.115,0.232-0.227,0.348-0.341     c0.621-0.609,1.256-1.203,1.919-1.767c0.001-0.001,0.003-0.003,0.004-0.004c2.607-8.736,10.586-15.095,20.027-15.095     c3.801,0,7.579,1.095,10.818,3.076c3.322,2.032,6.029,5.009,7.788,8.479c0.009,0.017,0.018,0.035,0.026,0.052     c0.044,0.088,0.094,0.172,0.138,0.261l0,0l0,0c0.001,0.003,0.003,0.006,0.005,0.009c0.003,0.002,0.007,0.005,0.01,0.007     c1.471,0.906,2.874,1.933,4.209,3.059c0.445,0.375,0.882,0.762,1.312,1.158c0.141,0.13,0.287,0.253,0.426,0.385     c0.003-0.005,0.005-0.011,0.008-0.016c0.002-0.003,0.004-0.007,0.005-0.01c0.048-0.099,0.095-0.199,0.144-0.295     c1.33-8.397,5.034-14.446,9.403-14.446c3.293,0,6.21,3.434,8.018,8.719l0.018,0.057c0.002,0.002,0.003,0.004,0.005,0.006     c0.51,0.555,1.008,1.166,1.49,1.836h-0.001c0.01,0.013,0.019,0.025,0.029,0.038v-0.001v0.001     c0.026,0.077,0.048,0.155,0.073,0.232l0,0l-0.069-0.275C92.239,30,77.021,18.416,59.097,18.416     c-22.483,0-40.708,18.226-40.708,40.708c0,4.432,0.708,8.699,2.023,12.67c0.002-0.008,0.004-0.015,0.005-0.023     c0.259-1.198,0.568-2.388,0.929-3.566C21.631,67.286,21.944,66.376,22.285,65.476z" fill="#525353" id="XMLID_60_"/><path d="M98.286,59.573l-1.42,1.588l0,0c-0.001,0.004-0.002,0.007-0.003,0.011     c-0.054,0.208-0.12,0.404-0.193,0.592c-0.019,0.05-0.04,0.096-0.061,0.144c-0.057,0.133-0.117,0.26-0.183,0.38     c-0.035,0.064-0.07,0.13-0.107,0.19c-0.059,0.095-0.122,0.18-0.187,0.264c-0.093,0.121-0.191,0.23-0.294,0.326     c-0.042,0.04-0.083,0.083-0.127,0.118c-0.08,0.064-0.163,0.117-0.247,0.165c-0.032,0.018-0.064,0.036-0.097,0.052     c-0.203,0.099-0.417,0.158-0.639,0.158c-1.29,0-2.336-1.792-2.336-4.003h-0.009h-0.002h-4.662h-0.014     c0.001,0.001,0.002,0.002,0.003,0.003c0.87,1.005,1.726,2.024,2.569,3.052c0.01,0.012,0.02,0.025,0.031,0.037     c0.82,1.001,1.629,2.012,2.428,3.028c0.039,0.05,0.079,0.099,0.118,0.149c0.758,0.967,1.508,1.94,2.251,2.915     c0.072,0.095,0.145,0.189,0.217,0.283c0.786,1.034,1.565,2.071,2.337,3.109c0.005,0.007,0.011,0.015,0.016,0.022     c1.339-3.963,2.088-8.196,2.135-12.599H99.8h-1.499L98.286,59.573z" fill="#FFFFFF" id="XMLID_59_"/><path d="M52.916,40.772c0.106-0.008,0.212-0.015,0.318-0.022c0.726-0.049,1.457-0.081,2.194-0.081     c2.207,0,4.364,0.237,6.462,0.666c0,0,0,0.011,0,0.031c0,0.018,0,0.046,0,0.078c0,0.039,0,0.088,0,0.143c0,0.043,0,0.092,0,0.143     c0,0.072,0,0.153,0,0.237c0,0.055,0,0.113,0,0.172c0,0.075,0,0.153,0,0.233v-1.037c1.481,0.349,4.109,1.071,6.06,1.895     c0.819,0.346,1.624,0.724,2.412,1.134c0.036,0.019,0.099,0.053,0.179,0.097c0.014,0.008,0.034,0.019,0.048,0.027     c0.073,0.041,0.153,0.085,0.246,0.138c0.002,0.001,0.005,0.003,0.006,0.004c0.11,0.062,0.229,0.13,0.355,0.201     c0.01,0.006,0.021,0.012,0.031,0.018c0.502,0.285,1.057,0.603,1.269,0.725c0.027,0.016,0.04,0.023,0.055,0.031     c0.01,0.006,0.035,0.02,0.038,0.022l0,0c-0.044-0.088-0.094-0.173-0.138-0.261c-0.009-0.017-0.017-0.035-0.026-0.052     c-1.758-3.47-4.466-6.447-7.788-8.479c-3.239-1.981-7.018-3.076-10.818-3.076c-9.441,0-17.42,6.359-20.027,15.095     c2.469-2.108,5.215-3.886,8.172-5.236C45.413,42.044,49.136,41.059,52.916,40.772z" id="XMLID_58_"/><line fill="none" id="XMLID_57_" x1="61.891" x2="61.891" y1="42.373" y2="42.616"/><path d="M83.077,43.645c1.659-1.623,3.878-2.937,6.257-2.937c1.884,0,3.693,0.763,5.382,2.158     c0,0,0,0.012,0,0.016v0.003v-0.003c0.151,0.124,0.299,0.264,0.449,0.4c0.09,0.082,0.183,0.157,0.272,0.243     c0.237,0.227,0.471,0.467,0.703,0.719l0,0c0.005,0.005,0.009,0.011,0.013,0.016c-0.001-0.002-0.003-0.004-0.005-0.005l0,0     l-0.019-0.057c-1.808-5.285-4.725-8.719-8.018-8.719c-4.369,0-8.073,6.049-9.403,14.446l0.014-0.012     C79.859,47.656,81.262,45.421,83.077,43.645z" id="XMLID_56_"/><path d="M44.525,97.096c0.372,0.143,0.75,0.272,1.127,0.404c4.211,1.475,8.733,2.288,13.449,2.288     c5.377,0,10.505-1.052,15.204-2.946c0.249-0.1,0.492-0.21,0.738-0.315c0.399-0.17,0.795-0.345,1.187-0.527     c0.351-0.163,0.702-0.325,1.047-0.497c-0.083,0.01-0.167,0.026-0.25,0.036l0,0c-1.461,0.164-2.91,0.174-4.327-0.029     c-8.376-1.204-10.232-5.243-9.966-9.449c-0.603-0.348-1.217-0.739-1.841-1.192c-6.442-4.673-10.265-9.652-10.265-9.652     s4.969,3.836,12.392,6.707c0.159,0.062,0.308,0.115,0.465,0.174c0.347-1.199,0.757-2.339,1.118-3.349l0,0     c0.039-0.11,0.079-0.222,0.117-0.329c0.413-1.163,0.884-2.304,1.381-3.434c1.873-4.258,4.15-8.382,5.272-12.928l0.537-2.539     h-4.571h-0.01l0,0c0,0.003,0,0.006,0,0.009l-0.002,0.001l0,0c0,0.013,0.002,0.025,0.002,0.038c0,0.755-0.153,1.474-0.43,2.129     c-0.139,0.327-0.308,0.638-0.504,0.929c-0.393,0.582-0.895,1.084-1.477,1.477c-0.291,0.197-0.602,0.366-0.929,0.504     c-0.654,0.277-1.374,0.43-2.129,0.43c-0.192,0-0.381-0.01-0.568-0.03c-0.044-0.005-0.086-0.014-0.129-0.02     c-0.143-0.018-0.285-0.038-0.424-0.067c-0.039-0.008-0.076-0.02-0.115-0.029c-0.143-0.033-0.285-0.068-0.423-0.112     c-0.025-0.008-0.05-0.019-0.075-0.028c-0.149-0.05-0.298-0.104-0.441-0.167c-0.013-0.006-0.025-0.012-0.038-0.018     c-0.155-0.069-0.307-0.143-0.453-0.226c-0.002-0.001-0.005-0.003-0.007-0.004c-0.471-0.265-0.899-0.598-1.27-0.986l-15.694-3.83     H25.096c-0.074,0.13-0.155,0.256-0.227,0.387c-0.131,0.237-0.254,0.478-0.38,0.717c-0.31,0.588-0.61,1.182-0.892,1.785     c-0.1,0.212-0.199,0.424-0.295,0.638c-0.345,0.767-0.674,1.542-0.975,2.327c-0.013,0.035-0.028,0.069-0.041,0.104     c-0.341,0.9-0.654,1.81-0.935,2.728c-0.36,1.178-0.67,2.368-0.929,3.566c2.697,8.224,7.942,15.29,14.8,20.271     c0.199,0.145,0.41,0.274,0.612,0.415c1.16,0.811,2.358,1.569,3.602,2.258C41.068,95.618,42.765,96.42,44.525,97.096z" fill="#FFFFFF" id="XMLID_55_"/><path d="M72.631,84.452c-0.062,0.436-0.105,0.865-0.117,1.279     c-0.024,0.753,0.028,1.468,0.138,2.144c0.073,0.451,0.171,0.884,0.289,1.298c0.177,0.622,0.399,1.203,0.648,1.74     c0.248,0.537,0.523,1.03,0.805,1.478c0.094,0.149,0.189,0.293,0.284,0.432c0.143,0.208,0.286,0.404,0.427,0.588     c0.187,0.245,0.368,0.46,0.543,0.662c0.747,0.859,1.335,1.326,1.335,1.326s0.004,0.014,0.012,0.038s0.02,0.06,0.034,0.103l0,0     c0.083-0.009,0.167-0.025,0.25-0.036c1.815-0.227,3.644-0.719,5.448-1.368c0.92-0.331,1.836-0.69,2.738-1.101     c0.275-0.126,0.544-0.265,0.817-0.397c9.325-4.509,17.133-12.484,17.133-12.484C91.697,85.91,80.246,85.681,72.631,84.452z" fill="#9F2255" id="XMLID_54_"/><path d="M95.104,68.743c-0.743-0.976-1.492-1.949-2.251-2.915     c-0.039-0.05-0.079-0.099-0.118-0.149c-0.799-1.017-1.608-2.027-2.428-3.028c-0.01-0.012-0.02-0.025-0.031-0.037     c-0.844-1.028-1.699-2.047-2.569-3.052c-0.055-0.064-0.11-0.128-0.166-0.192c-0.532-0.612-1.073-1.217-1.616-1.819     c-0.189-0.208-0.377-0.416-0.567-0.623c-0.451-0.492-0.906-0.979-1.366-1.462c-0.358-0.375-0.72-0.744-1.083-1.113     c-0.342-0.348-0.683-0.699-1.03-1.042c-0.747-0.735-1.502-1.461-2.274-2.168c-0.342-0.312-0.688-0.62-1.038-0.923     c-0.002,0.004-0.003,0.007-0.005,0.01c0.736,2.114,1.575,4.255,1.995,6.459c0.109,0.573,0.2,1.132,0.273,1.677     c1.025,7.631-1.42,12.613-5.304,19.167c-0.278,0.47-0.564,0.947-0.856,1.435c-0.888,1.48-1.457,2.882-1.786,4.199     c-0.11,0.439-0.193,0.868-0.253,1.287c7.615,1.229,19.066,1.458,30.782-4.299c0,0-2.297-3.377-5.755-8.019     c-0.773-1.038-1.552-2.075-2.337-3.109C95.249,68.931,95.176,68.837,95.104,68.743z" fill="#E2066F" id="XMLID_53_"/><path d="M76.981,95.398c0,0-0.588-0.466-1.335-1.326c-0.175-0.202-0.355-0.417-0.543-0.662     c-0.141-0.184-0.284-0.38-0.427-0.588c-0.095-0.139-0.19-0.283-0.284-0.432c-0.282-0.447-0.557-0.94-0.805-1.478     c-0.248-0.537-0.47-1.118-0.648-1.74c-0.118-0.415-0.216-0.848-0.289-1.298c-0.109-0.676-0.161-1.391-0.138-2.144     c0.013-0.414,0.055-0.843,0.117-1.279c0.06-0.419,0.143-0.849,0.253-1.287c0.329-1.316,0.898-2.718,1.786-4.199     c0.003-0.004,0.005-0.008,0.007-0.012c0.29-0.483,0.573-0.957,0.849-1.422c3.883-6.554,6.328-11.536,5.304-19.167     c-0.073-0.545-0.164-1.103-0.273-1.677c-0.058,0.396-0.118,0.737-0.179,1.024c-0.006,0.028-0.012,0.054-0.018,0.081     c-0.039,0.174-0.078,0.332-0.118,0.45c-1.687,4.992-4.492,8.873-8.312,13.02c-0.518,0.562-1.06,1.132-1.615,1.707     c-0.934,0.968-1.913,1.957-2.95,2.989c-0.413,0.411-0.835,0.829-1.264,1.254c-0.394,0.39-0.912,0.922-1.497,1.536l0,0     c-0.361,1.011-0.772,2.151-1.118,3.349c-0.156-0.059-0.305-0.112-0.465-0.174c-7.422-2.871-12.392-6.707-12.392-6.707     s3.823,4.979,10.265,9.652c0.624,0.453,1.238,0.844,1.841,1.192c-0.266,4.206,1.59,8.245,9.966,9.449     c1.416,0.204,2.866,0.194,4.327,0.029c-0.015-0.043-0.026-0.079-0.034-0.103C76.985,95.412,76.981,95.398,76.981,95.398z" id="XMLID_52_"/></g></g></g></svg>